<?xml version="1.0" standalone="no"?><!DOCTYPE svg PUBLIC "-//W3C//DTD SVG 1.1//EN" "http://www.w3.org/Graphics/SVG/1.1/DTD/svg11.dtd"><svg t="1611996418120" class="icon" viewBox="0 0 1024 1024" version="1.1" xmlns="http://www.w3.org/2000/svg" p-id="1213" width="200" height="200" xmlns:xlink="http://www.w3.org/1999/xlink"><defs><style type="text/css"></style></defs><path d="M804.571429 1024H219.428571c-53.638095 0-97.52381-43.885714-97.523809-97.52381V97.52381c0-53.638095 43.885714-97.52381 97.523809-97.52381h585.142858c53.638095 0 97.52381 43.885714 97.523809 97.52381v828.95238c0 53.638095-43.885714 97.52381-97.523809 97.52381z" fill="#FF4858" p-id="1214"></path><path d="M670.47619 170.666667h-316.95238c-19.504762 0-36.571429-17.066667-36.571429-36.571429S334.019048 97.52381 353.52381 97.52381h316.95238c19.504762 0 36.571429 17.066667 36.571429 36.571428S689.980952 170.666667 670.47619 170.666667z" fill="#FFA3AB" p-id="1215"></path><path d="M512 889.904762m-36.571429 0a36.571429 36.571429 0 1 0 73.142858 0 36.571429 36.571429 0 1 0-73.142858 0Z" fill="#FFA3AB" p-id="1216"></path><path d="M529.066667 648.533333L365.714286 485.180952l-109.714286 112.152381c-14.628571 12.190476-36.571429 12.190476-51.2 0-14.628571-14.628571-14.628571-36.571429 0-51.2l126.780952-129.219047c19.504762-19.504762 48.761905-19.504762 65.828572 0l160.914286 163.352381 207.238095-209.676191c14.628571-14.628571 36.571429-14.628571 51.2 0 14.628571 14.628571 14.628571 36.571429 0 51.2l-224.304762 226.742857c-14.628571 17.066667-46.32381 17.066667-63.390476 0z" fill="#FFFFFF" p-id="1217"></path></svg>